<svg width="100%" height="100%" viewBox="0 0 400 400" preserveAspectRatio="xMidYMid meet" fill="none" xmlns="http://www.w3.org/2000/svg">
<path fill-rule="evenodd" clip-rule="evenodd" d="M290.558 361.387C344.353 329.787 380.466 271.321 380.466 204.421C380.466 103.953 299.02 22.5078 198.552 22.5078C98.0842 22.5078 16.6387 103.953 16.6387 204.421C16.6387 271.321 52.7515 329.787 106.547 361.387H290.558Z" fill="#FDE8EC"/>
<path d="M4 362H395.001" stroke="#D5506F" stroke-width="3" stroke-linecap="round"/>
<path d="M177.716 303.057H221.378V360.523H177.716V303.057Z" fill="#D5506F"/>
<path d="M222.662 361.807H176.432V301.773H222.662V361.807ZM179 359.239H220.093V304.341H179V359.239Z" fill="#D5506F"/>
<path d="M314.158 307.576H81.7257C78.1795 307.576 75.3049 304.701 75.3049 301.155V149.625C75.3049 146.078 78.1795 143.204 81.7257 143.204H314.158C317.704 143.204 320.579 146.078 320.579 149.625V301.155C320.579 304.701 317.704 307.576 314.158 307.576Z" fill="#D5506F"/>
<path d="M314.158 308.86H81.7257C77.4771 308.86 74.0208 305.404 74.0208 301.155V149.625C74.0208 145.376 77.4771 141.92 81.7257 141.92H314.158C318.406 141.92 321.863 145.376 321.863 149.625V301.155C321.863 305.404 318.406 308.86 314.158 308.86ZM81.7257 144.488C78.8935 144.488 76.5891 146.792 76.5891 149.625V301.155C76.5891 303.987 78.8935 306.292 81.7257 306.292H314.158C316.99 306.292 319.294 303.987 319.294 301.155V149.625C319.294 146.792 316.99 144.488 314.158 144.488H81.7257Z" fill="#D5506F"/>
<path d="M319.316 282.831H76.6104V149.773C76.6104 146.854 78.9764 144.488 81.8953 144.488H314.031C316.95 144.488 319.316 146.854 319.316 149.773V282.831Z" fill="#F38CA1"/>
<path d="M260.887 361.807H137.929C137.588 361.807 137.262 361.672 137.021 361.431C136.78 361.19 136.645 360.863 136.645 360.523C136.645 360.182 136.78 359.856 137.021 359.615C137.262 359.374 137.588 359.239 137.929 359.239H260.887C261.227 359.239 261.554 359.374 261.795 359.615C262.036 359.856 262.171 360.182 262.171 360.523C262.171 360.863 262.036 361.19 261.795 361.431C261.554 361.672 261.227 361.807 260.887 361.807Z" fill="#D5506F"/>
<rect x="117.646" y="64.0182" width="160.477" height="180.731" fill="#F8BAC6"/>
<rect x="125.436" y="137.246" width="146.455" height="7.79014" fill="#F0758D"/>
<rect x="117.646" y="64.0182" width="160.477" height="10.9062" fill="#F0758D"/>
<circle cx="124.657" cy="69.4713" r="2.33704" fill="white"/>
<circle cx="132.447" cy="69.4713" r="2.33704" fill="white"/>
<circle cx="140.237" cy="69.4713" r="2.33704" fill="white"/>
<rect x="132.168" y="89.4467" width="36.3927" height="36.3927" rx="3.5" stroke="white"/>
<path d="M176.851 89.7257H265.658" stroke="white" stroke-linecap="round"/>
<path d="M176.851 98.2948H265.658" stroke="white" stroke-linecap="round"/>
<path d="M176.851 107.643H265.658" stroke="white" stroke-linecap="round"/>
<path d="M176.851 116.991H265.658" stroke="white" stroke-linecap="round"/>
<path d="M176.851 126.339H265.658" stroke="white" stroke-linecap="round"/>
<rect x="157.096" y="193.835" width="48.8569" height="6.79014" rx="1.5" stroke="white"/>
<rect x="157.096" y="206.299" width="30.1606" height="6.79014" rx="1.5" stroke="white"/>
<rect x="157.096" y="218.763" width="83.1335" height="6.79014" rx="1.5" stroke="white"/>
<rect x="157.096" y="156.442" width="53.531" height="6.79014" rx="1.5" stroke="white"/>
<rect x="157.096" y="168.906" width="37.9507" height="6.79014" rx="1.5" stroke="white"/>
<rect x="168.002" y="181.37" width="37.9507" height="6.79014" rx="1.5" stroke="white"/>
<rect x="217.859" y="156.442" width="17.6963" height="6.79014" rx="1.5" stroke="white"/>
<mask id="path-28-outside-1_68_249" maskUnits="userSpaceOnUse" x="53" y="187" width="88" height="44" fill="black">
<rect fill="white" x="53" y="187" width="88" height="44"/>
<path d="M79.9268 202.489C80.1709 202.375 80.472 202.318 80.8301 202.318C81.4648 202.318 82.0101 202.546 82.4658 203.002C82.9215 203.458 83.1494 204.003 83.1494 204.638C83.1494 205.093 83.0029 205.533 82.71 205.956C82.4333 206.363 82.0833 206.648 81.6602 206.811L65.3271 213.28L81.6846 220.043C82.1077 220.206 82.4577 220.491 82.7344 220.897C83.0111 221.288 83.1494 221.719 83.1494 222.191C83.1494 222.826 82.9215 223.371 82.4658 223.827C82.0101 224.283 81.4648 224.511 80.8301 224.511C80.4883 224.511 80.179 224.454 79.9023 224.34L58.2471 215.38C57.8402 215.201 57.4984 214.908 57.2217 214.501C56.9613 214.094 56.8311 213.671 56.8311 213.231C56.8311 212.776 56.9694 212.344 57.2461 211.938C57.5228 211.531 57.8727 211.246 58.2959 211.083L79.9268 202.489ZM106.318 190.673C107.051 190.998 107.515 191.495 107.71 192.162C107.905 192.813 107.881 193.415 107.637 193.969L91.4746 226.464C91.2142 227.099 90.7666 227.53 90.1318 227.758C89.5133 227.986 88.9355 227.978 88.3984 227.733C87.7474 227.44 87.2835 226.977 87.0068 226.342C86.7301 225.723 86.7464 225.08 87.0557 224.413L103.218 191.918C103.494 191.397 103.918 190.99 104.487 190.697C105.073 190.388 105.684 190.38 106.318 190.673ZM114.741 202.489L136.372 211.083C136.795 211.246 137.145 211.531 137.422 211.938C137.699 212.344 137.837 212.776 137.837 213.231C137.837 213.671 137.707 214.094 137.446 214.501C137.186 214.908 136.844 215.201 136.421 215.38L114.766 224.34C114.489 224.454 114.18 224.511 113.838 224.511C113.203 224.511 112.658 224.283 112.202 223.827C111.746 223.371 111.519 222.826 111.519 222.191C111.519 221.719 111.657 221.288 111.934 220.897C112.227 220.491 112.576 220.206 112.983 220.043L129.341 213.28L113.008 206.811C112.585 206.648 112.227 206.363 111.934 205.956C111.657 205.533 111.519 205.093 111.519 204.638C111.519 204.003 111.746 203.458 112.202 203.002C112.658 202.546 113.203 202.318 113.838 202.318C114.196 202.318 114.497 202.375 114.741 202.489Z"/>
</mask>
<path d="M79.9268 202.489C80.1709 202.375 80.472 202.318 80.8301 202.318C81.4648 202.318 82.0101 202.546 82.4658 203.002C82.9215 203.458 83.1494 204.003 83.1494 204.638C83.1494 205.093 83.0029 205.533 82.71 205.956C82.4333 206.363 82.0833 206.648 81.6602 206.811L65.3271 213.28L81.6846 220.043C82.1077 220.206 82.4577 220.491 82.7344 220.897C83.0111 221.288 83.1494 221.719 83.1494 222.191C83.1494 222.826 82.9215 223.371 82.4658 223.827C82.0101 224.283 81.4648 224.511 80.8301 224.511C80.4883 224.511 80.179 224.454 79.9023 224.34L58.2471 215.38C57.8402 215.201 57.4984 214.908 57.2217 214.501C56.9613 214.094 56.8311 213.671 56.8311 213.231C56.8311 212.776 56.9694 212.344 57.2461 211.938C57.5228 211.531 57.8727 211.246 58.2959 211.083L79.9268 202.489ZM106.318 190.673C107.051 190.998 107.515 191.495 107.71 192.162C107.905 192.813 107.881 193.415 107.637 193.969L91.4746 226.464C91.2142 227.099 90.7666 227.53 90.1318 227.758C89.5133 227.986 88.9355 227.978 88.3984 227.733C87.7474 227.44 87.2835 226.977 87.0068 226.342C86.7301 225.723 86.7464 225.08 87.0557 224.413L103.218 191.918C103.494 191.397 103.918 190.99 104.487 190.697C105.073 190.388 105.684 190.38 106.318 190.673ZM114.741 202.489L136.372 211.083C136.795 211.246 137.145 211.531 137.422 211.938C137.699 212.344 137.837 212.776 137.837 213.231C137.837 213.671 137.707 214.094 137.446 214.501C137.186 214.908 136.844 215.201 136.421 215.38L114.766 224.34C114.489 224.454 114.18 224.511 113.838 224.511C113.203 224.511 112.658 224.283 112.202 223.827C111.746 223.371 111.519 222.826 111.519 222.191C111.519 221.719 111.657 221.288 111.934 220.897C112.227 220.491 112.576 220.206 112.983 220.043L129.341 213.28L113.008 206.811C112.585 206.648 112.227 206.363 111.934 205.956C111.657 205.533 111.519 205.093 111.519 204.638C111.519 204.003 111.746 203.458 112.202 203.002C112.658 202.546 113.203 202.318 113.838 202.318C114.196 202.318 114.497 202.375 114.741 202.489Z" fill="#D5506F"/>
<path d="M79.9268 202.489L81.0344 205.277L81.1159 205.245L81.1954 205.208L79.9268 202.489ZM82.71 205.956L80.2434 204.248L80.2362 204.259L80.2292 204.269L82.71 205.956ZM81.6602 206.811L80.5832 204.011L80.5692 204.016L80.5553 204.021L81.6602 206.811ZM65.3271 213.28L64.2223 210.491L57.3312 213.221L64.1809 216.053L65.3271 213.28ZM81.6846 220.043L80.5384 222.815L80.5728 222.83L80.6076 222.843L81.6846 220.043ZM82.7344 220.897L80.2536 222.584L80.2697 222.608L80.2863 222.632L82.7344 220.897ZM79.9023 224.34L78.7554 227.112L78.7601 227.114L79.9023 224.34ZM58.2471 215.38L57.0389 218.126L57.0693 218.139L57.1001 218.152L58.2471 215.38ZM57.2217 214.501L54.6949 216.118L54.7174 216.153L54.7409 216.188L57.2217 214.501ZM58.2959 211.083L59.3728 213.883L59.3882 213.877L59.4036 213.871L58.2959 211.083ZM81.1954 205.208C80.9342 205.33 80.7729 205.318 80.8301 205.318V199.318C80.1711 199.318 79.4076 199.421 78.6581 199.771L81.1954 205.208ZM80.8301 205.318C80.7801 205.318 80.6786 205.308 80.5583 205.257C80.4389 205.207 80.3678 205.147 80.3445 205.123L84.5871 200.881C83.5785 199.872 82.2741 199.318 80.8301 199.318V205.318ZM80.3445 205.123C80.3212 205.1 80.2604 205.029 80.2105 204.909C80.1602 204.789 80.1494 204.688 80.1494 204.638H86.1494C86.1494 203.194 85.5958 201.889 84.5871 200.881L80.3445 205.123ZM80.1494 204.638C80.1494 204.538 80.1665 204.441 80.1935 204.36C80.2195 204.282 80.2458 204.245 80.2434 204.248L85.1765 207.664C85.7702 206.806 86.1494 205.781 86.1494 204.638H80.1494ZM80.2292 204.269C80.2397 204.254 80.2761 204.205 80.3462 204.148C80.418 204.09 80.5007 204.042 80.5832 204.011L82.7371 209.611C83.7797 209.21 84.6012 208.51 85.1907 207.643L80.2292 204.269ZM80.5553 204.021L64.2223 210.491L66.432 216.069L82.765 209.6L80.5553 204.021ZM64.1809 216.053L80.5384 222.815L82.8308 217.271L66.4734 210.508L64.1809 216.053ZM80.6076 222.843C80.5251 222.811 80.4424 222.764 80.3706 222.705C80.3005 222.648 80.2641 222.6 80.2536 222.584L85.2152 219.211C84.6256 218.344 83.8041 217.644 82.7615 217.243L80.6076 222.843ZM80.2863 222.632C80.2576 222.591 80.2186 222.523 80.189 222.43C80.1592 222.337 80.1494 222.253 80.1494 222.191H86.1494C86.1494 221.089 85.8128 220.053 85.1824 219.163L80.2863 222.632ZM80.1494 222.191C80.1494 222.141 80.1602 222.04 80.2105 221.92C80.2604 221.8 80.3212 221.729 80.3445 221.706L84.5871 225.948C85.5958 224.94 86.1494 223.635 86.1494 222.191H80.1494ZM80.3445 221.706C80.3678 221.683 80.4389 221.622 80.5583 221.572C80.6786 221.522 80.7801 221.511 80.8301 221.511V227.511C82.2741 227.511 83.5785 226.957 84.5871 225.948L80.3445 221.706ZM80.8301 221.511C80.8248 221.511 80.9111 221.511 81.0446 221.566L78.7601 227.114C79.447 227.397 80.1518 227.511 80.8301 227.511V221.511ZM81.0493 221.568L59.394 212.608L57.1001 218.152L78.7554 227.112L81.0493 221.568ZM59.4553 212.634C59.525 212.665 59.588 212.705 59.6379 212.748C59.6863 212.79 59.7053 212.818 59.7025 212.814L54.7409 216.188C55.2991 217.009 56.0628 217.696 57.0389 218.126L59.4553 212.634ZM59.7485 212.884C59.7513 212.888 59.7745 212.926 59.796 212.996C59.8182 213.068 59.8311 213.15 59.8311 213.231H53.8311C53.8311 214.3 54.1573 215.278 54.6949 216.118L59.7485 212.884ZM59.8311 213.231C59.8311 213.313 59.8179 213.4 59.7915 213.482C59.7657 213.563 59.7362 213.611 59.7269 213.624L54.7653 210.251C54.1786 211.113 53.8311 212.126 53.8311 213.231H59.8311ZM59.7269 213.624C59.7163 213.64 59.68 213.688 59.6099 213.745C59.538 213.804 59.4554 213.851 59.3728 213.883L57.219 208.283C56.1764 208.684 55.3549 209.384 54.7653 210.251L59.7269 213.624ZM59.4036 213.871L81.0344 205.277L78.8191 199.701L57.1882 208.295L59.4036 213.871ZM106.318 190.673L105.061 193.397L105.081 193.406L105.1 193.414L106.318 190.673ZM107.71 192.162L104.831 193.005L104.834 193.014L104.836 193.024L107.71 192.162ZM107.637 193.969L110.323 195.305L110.354 195.243L110.381 195.18L107.637 193.969ZM91.4746 226.464L88.7885 225.128L88.7402 225.225L88.6991 225.325L91.4746 226.464ZM90.1318 227.758L89.1182 224.934L89.1065 224.938L89.0947 224.943L90.1318 227.758ZM88.3984 227.733L89.6399 225.002L89.6295 224.998L88.3984 227.733ZM87.0068 226.342L89.7569 225.143L89.7512 225.13L89.7453 225.117L87.0068 226.342ZM87.0557 224.413L84.3696 223.077L84.3511 223.114L84.3337 223.152L87.0557 224.413ZM103.218 191.918L100.568 190.511L100.55 190.546L100.532 190.582L103.218 191.918ZM104.487 190.697L105.859 193.365L105.874 193.358L105.888 193.35L104.487 190.697ZM105.1 193.414C105.163 193.443 105.111 193.431 105.024 193.338C104.928 193.235 104.862 193.11 104.831 193.005L110.589 191.319C110.107 189.672 108.938 188.554 107.537 187.931L105.1 193.414ZM104.836 193.024C104.851 193.071 104.838 193.051 104.841 192.981C104.844 192.905 104.863 192.824 104.892 192.758L110.381 195.18C110.95 193.891 110.957 192.545 110.583 191.3L104.836 193.024ZM104.951 192.633L88.7885 225.128L94.1607 227.8L110.323 195.305L104.951 192.633ZM88.6991 225.325C88.7103 225.298 88.7563 225.205 88.8619 225.103C88.9685 225 89.0711 224.951 89.1182 224.934L91.1454 230.581C92.5952 230.061 93.6737 229.007 94.2501 227.603L88.6991 225.325ZM89.0947 224.943C89.0828 224.947 89.1497 224.921 89.2769 224.923C89.4108 224.925 89.5396 224.957 89.6398 225.002L87.157 230.464C88.5 231.075 89.9043 231.039 91.169 230.573L89.0947 224.943ZM89.6295 224.998C89.6062 224.987 89.6366 224.998 89.6836 225.044C89.705 225.066 89.7231 225.088 89.7371 225.109C89.7508 225.129 89.7566 225.142 89.7569 225.143L84.2567 227.541C84.8413 228.882 85.8598 229.881 87.1673 230.469L89.6295 224.998ZM89.7453 225.117C89.7798 225.194 89.8144 225.322 89.8106 225.472C89.8069 225.615 89.7707 225.689 89.7776 225.674L84.3337 223.152C83.6948 224.53 83.6045 226.083 84.2684 227.567L89.7453 225.117ZM89.7418 225.749L105.904 193.254L100.532 190.582L84.3696 223.077L89.7418 225.749ZM105.867 193.325C105.863 193.333 105.857 193.343 105.848 193.355C105.839 193.368 105.829 193.377 105.822 193.385C105.815 193.392 105.812 193.393 105.816 193.39C105.82 193.387 105.834 193.378 105.859 193.365L103.115 188.029C102.05 188.577 101.157 189.402 100.568 190.511L105.867 193.325ZM105.888 193.35C105.798 193.398 105.634 193.456 105.425 193.459C105.221 193.462 105.091 193.411 105.061 193.397L107.576 187.949C106.147 187.29 104.551 187.271 103.087 188.044L105.888 193.35ZM114.741 202.489L113.473 205.208L113.552 205.245L113.634 205.277L114.741 202.489ZM136.372 211.083L135.264 213.871L135.28 213.877L135.295 213.883L136.372 211.083ZM136.421 215.38L137.568 218.152L137.579 218.147L137.59 218.143L136.421 215.38ZM114.766 224.34L115.908 227.114L115.913 227.112L114.766 224.34ZM112.202 223.827L110.081 225.948L112.202 223.827ZM111.934 220.897L109.499 219.145L109.492 219.154L109.486 219.163L111.934 220.897ZM112.983 220.043L114.098 222.828L114.114 222.822L114.13 222.815L112.983 220.043ZM129.341 213.28L130.487 216.053L137.337 213.221L130.446 210.491L129.341 213.28ZM113.008 206.811L114.113 204.021L114.099 204.016L114.085 204.011L113.008 206.811ZM111.934 205.956L109.423 207.598L109.46 207.654L109.499 207.709L111.934 205.956ZM113.634 205.277L135.264 213.871L137.48 208.295L115.849 199.701L113.634 205.277ZM135.295 213.883C135.213 213.851 135.13 213.804 135.058 213.745C134.988 213.688 134.952 213.64 134.941 213.624L139.903 210.251C139.313 209.384 138.492 208.684 137.449 208.283L135.295 213.883ZM134.941 213.624C134.932 213.611 134.902 213.563 134.877 213.482C134.85 213.4 134.837 213.313 134.837 213.231H140.837C140.837 212.126 140.489 211.113 139.903 210.251L134.941 213.624ZM134.837 213.231C134.837 213.15 134.85 213.068 134.872 212.996C134.893 212.926 134.917 212.888 134.919 212.884L139.973 216.118C140.511 215.278 140.837 214.3 140.837 213.231H134.837ZM134.919 212.884C134.936 212.858 134.975 212.806 135.042 212.748C135.111 212.689 135.185 212.645 135.252 212.617L137.59 218.143C138.6 217.715 139.404 217.008 139.973 216.118L134.919 212.884ZM135.274 212.608L113.619 221.568L115.913 227.112L137.568 218.152L135.274 212.608ZM113.623 221.566C113.757 221.511 113.843 221.511 113.838 221.511V227.511C114.516 227.511 115.221 227.397 115.908 227.114L113.623 221.566ZM113.838 221.511C113.888 221.511 113.989 221.522 114.11 221.572C114.229 221.622 114.3 221.683 114.323 221.706L110.081 225.948C111.089 226.957 112.394 227.511 113.838 227.511V221.511ZM114.323 221.706C114.347 221.729 114.408 221.8 114.457 221.92C114.508 222.04 114.519 222.141 114.519 222.191H108.519C108.519 223.635 109.072 224.94 110.081 225.948L114.323 221.706ZM114.519 222.191C114.519 222.253 114.509 222.337 114.479 222.43C114.449 222.523 114.41 222.591 114.382 222.632L109.486 219.163C108.855 220.053 108.519 221.089 108.519 222.191H114.519ZM114.368 222.65C114.377 222.638 114.361 222.664 114.31 222.705C114.256 222.749 114.184 222.794 114.098 222.828L111.869 217.258C110.86 217.661 110.076 218.343 109.499 219.145L114.368 222.65ZM114.13 222.815L130.487 216.053L128.195 210.508L111.837 217.271L114.13 222.815ZM130.446 210.491L114.113 204.021L111.903 209.6L128.236 216.069L130.446 210.491ZM114.085 204.011C114.161 204.04 114.232 204.081 114.289 204.127C114.345 204.172 114.369 204.204 114.368 204.203L109.499 207.709C110.096 208.538 110.906 209.216 111.931 209.611L114.085 204.011ZM114.445 204.314C114.442 204.31 114.463 204.342 114.484 204.408C114.505 204.477 114.519 204.557 114.519 204.638H108.519C108.519 205.739 108.863 206.742 109.423 207.598L114.445 204.314ZM114.519 204.638C114.519 204.688 114.508 204.789 114.457 204.909C114.408 205.029 114.347 205.1 114.323 205.123L110.081 200.881C109.072 201.889 108.519 203.194 108.519 204.638H114.519ZM114.323 205.123C114.3 205.147 114.229 205.207 114.11 205.257C113.989 205.308 113.888 205.318 113.838 205.318V199.318C112.394 199.318 111.089 199.872 110.081 200.881L114.323 205.123ZM113.838 205.318C113.895 205.318 113.734 205.33 113.473 205.208L116.01 199.771C115.26 199.421 114.497 199.318 113.838 199.318V205.318Z" fill="white" mask="url(#path-28-outside-1_68_249)"/>
</svg>