<svg width="100%" height="100%" viewBox="0 0 512 512" preserveAspectRatio="xMidYMid meet" fill="none" xmlns="http://www.w3.org/2000/svg">
<path fill-rule="evenodd" clip-rule="evenodd" d="M444.734 364C463.326 332.664 474 296.079 474 257C474 141.02 379.98 47 264 47C148.02 47 54 141.02 54 257C54 296.079 64.6742 332.664 83.266 364H444.734Z" fill="#FDEFB4"/>
<path d="M39 364H488.04" stroke="black" stroke-linecap="round"/>
<path d="M285 147C278.5 147 275.276 149.155 272 155L279.5 165L286 172L287.5 200.5L279.5 222.5C273.664 225.859 270.5 230.5 270.5 236C270.5 241.5 272.772 245.598 279.5 251C278.599 248.502 278 246.5 278 244C278 241.5 278 239.5 279.5 236.5C279.5 236.5 281.5 246 282.5 249C283.5 252 287.792 256.488 300.5 259C297.385 254.588 297 250 298 246C299 242 306 240 307.5 236C309 232 310 229 307.5 224.5C306.119 222.014 304.738 218.003 303.778 214.91C302.936 212.193 303.785 209.301 305.585 207.099C307.547 204.698 309.148 202.203 310.5 199.5C312.5 195.5 313.5 191 310.5 185.5C307.5 180 305 176 305 174C305 172 307.5 169.5 307.5 167.5C307.5 165.5 304 158.5 300.5 155C297 151.5 291.5 147 285 147Z" fill="#5B2B21"/>
<path d="M280.5 165.5C275.176 161.645 271.955 160.217 265.5 157.5C266.158 155.863 267.5 154.5 270.5 154.5C273.5 154.5 280.5 159 281 161C281.5 163 281.291 164.04 280.5 165.5Z" fill="#F9AF42"/>
<path d="M245.129 246.684L245.5 240L263.5 237.5V246.675C263.5 248.112 264.272 249.444 265.527 250.146C272.383 253.983 275.396 255.128 285 256.5C295.5 258 305.5 261.5 306.5 271C307.5 280.5 201.5 271 201.5 271C204.912 260.587 213.5 257.466 220.5 256.5C227.046 255.597 233.16 254.639 242.914 250.017C244.21 249.403 245.049 248.116 245.129 246.684Z" fill="#FBA284"/>
<path fill-rule="evenodd" clip-rule="evenodd" d="M263.5 243.451C258.487 245.095 251.553 245.756 245.237 244.728L245.5 240L263.5 237.5V243.451Z" fill="#F09075"/>
<path d="M226 222C225 215 226 200 226 200L229 171.5L248.5 163L287.5 174L286.507 202.304L278.5 223C275.606 230.672 272 236.5 265.5 239.5C259 242.5 247 243.5 238.5 240C230 236.5 227 229 226 222Z" fill="#FBA284"/>
<path d="M234.5 200.5C232.967 200.697 230.465 201.581 228.5 203C230.011 200.866 232 198 234.5 198C237 198 238.542 199.269 240 201C237.848 200.475 236.033 200.303 234.5 200.5Z" fill="#5B2B21"/>
<path d="M262.5 201C261.5 200.5 255.847 199.321 254 201C253.947 199.533 254.5 198.5 256.5 198C258.5 197.5 261 198 262.5 199C264 200 264.979 201.052 266 203C264.5 202 263.5 201.5 262.5 201L262.5 201Z" fill="#5B2B21"/>
<path d="M230.5 210C232.463 208.369 233.5 208 235 208C236.5 208 237.856 209.011 239.5 210.5" stroke="black" stroke-width="0.5" stroke-linecap="round"/>
<path d="M255 211C256.629 208.331 258 207.5 259.5 207.5C261 207.5 262.628 208.085 264.5 209.5" stroke="black" stroke-width="0.5" stroke-linecap="round"/>
<path d="M247.5 212C245.68 215.66 241 217.5 240.5 219.5C240 221.5 243 222.667 244 223C245 223.333 247.484 223.421 248.5 223" stroke="#D2765D" stroke-width="0.75" stroke-linecap="round"/>
<path d="M216.5 182.5C217 172 221.469 168.055 235 165C240.532 158.115 246.5 156.5 257.5 156.5C268.5 156.5 274.5 160 280.5 165C286.5 170 290 178.5 291 185.5C292 192.5 290.113 196.516 287.5 203L278.5 223.5L277 204.5C272.976 203.078 270.5 202 269.5 196.5C268.5 191 266.5 180.5 266.5 180.5C264.411 182.654 263.5 184 262.5 188C261.5 192 261 200 261 200C258.92 198.515 257.5 198.5 255 198.5H242.5V182.5C242.5 177 243.903 174.483 246.5 170C241.111 173.736 239 176.5 237.5 182.5C236 188.5 237.5 200 237.5 200H218C218 200 216 193 216.5 182.5Z" fill="#6E3429"/>
<path d="M249 234.5C245.101 234.5 242.58 231.861 240.649 227.353C240.585 227.205 240.718 227.048 240.876 227.081C246.709 228.325 250.505 228.291 257.575 227.074C257.742 227.045 257.87 227.225 257.783 227.371C255.196 231.775 252.892 234.5 249 234.5Z" fill="#B3272B"/>
<path fill-rule="evenodd" clip-rule="evenodd" d="M240.8 227.699C243.15 229.687 244.946 230.5 249 230.5C252.461 230.5 254.822 229.551 257.256 228.251C257.431 227.966 257.607 227.672 257.783 227.371C257.87 227.225 257.742 227.045 257.575 227.074C250.505 228.291 246.709 228.325 240.876 227.081C240.718 227.048 240.585 227.205 240.649 227.353C240.699 227.47 240.749 227.585 240.8 227.699Z" fill="#F4F4F4"/>
<ellipse cx="281.058" cy="212.79" rx="8.24472" ry="10.8536" transform="rotate(17 281.058 212.79)" fill="#FBA284"/>
<path fill-rule="evenodd" clip-rule="evenodd" d="M289.198 214.248C288.553 214.782 287.936 215.311 287.348 215.816C286.094 216.89 284.973 217.851 284 218.5C282.5 219.5 279.994 221.055 276.5 220.5C274.765 223.302 273.067 225.777 271.526 228.021C270.813 229.06 270.133 230.05 269.5 231C267.5 234 259.5 241 251 241C242.697 241 231.282 237.736 226.34 223.993C227.616 230.381 230.803 236.831 238.5 240C247 243.5 259 242.5 265.5 239.5C271.915 236.539 275.511 230.824 278.386 223.3C282.613 224.225 287.257 220.714 288.942 215.2C289.039 214.883 289.125 214.565 289.198 214.248Z" fill="#E98A6E"/>
<path d="M252.5 264.5C240.5 264.5 230.651 262.602 221 256.5C216.714 257.023 214.46 257.572 211 259.5C201.252 266.035 201 270 201 280C201 290 199.731 295.991 198 306.5H310.5C308.769 296.298 308 290 307.5 280C307 270 306.5 265 301 261.5C295.5 258 291.573 256.87 285 256.5C272.489 261.632 264.5 264.5 252.5 264.5Z" fill="#F8BAC6"/>
<path d="M220 276C217.707 279.287 216.889 281.275 216 285M216 285C215.5 288 215.5 291 216 295C216.5 299 217.326 301.237 219 305M216 285C214.974 282.219 214.668 280.596 215 277.5" stroke="#E46E88" stroke-width="0.5"/>
<path d="M288.372 276C290.665 279.287 291.483 281.275 292.372 285M292.372 285C292.872 288 292.872 291 292.372 295C291.872 299 291.046 301.237 289.372 305M292.372 285C293.398 282.219 293.704 280.596 293.372 277.5" stroke="#E46E88" stroke-width="0.5"/>
<path d="M340 304L325 380.5H183L168 304H340Z" fill="#D2D3D5"/>
<path d="M359 331.67H393L387.138 378.67C387.138 378.67 387.138 380.67 376 380.67C364.862 380.67 364.862 378.67 364.862 378.67L359 331.67Z" fill="#94CFCE"/>
<path d="M357 326.67C357 326.67 357 324.67 376 324.67C395 324.67 395 326.67 395 326.67V333.67C395 333.67 395 335.67 376 335.67C357 335.67 357 333.67 357 333.67V326.67Z" fill="#FED048"/>
<path d="M357 326.67C357 326.67 357 328.67 376 328.67C395 328.67 395 326.67 395 326.67V333.67C395 333.67 395 335.67 376 335.67C357 335.67 357 333.67 357 333.67V326.67Z" fill="#FED867"/>
<path d="M362 323.67C362 323.67 362 323 376 323C390 323 390 323.67 390 323.67L392 326.337C392 326.337 392 327.67 376 327.67C360 327.67 360 326.337 360 326.337L362 323.67Z" fill="#FED048"/>
<path d="M362 323.67C362 323.67 362 325.003 376 325.003C390 325.003 390 323.67 390 323.67L392 326.337C392 326.337 392 327.67 376 327.67C360 327.67 360 326.337 360 326.337L362 323.67Z" fill="#FED867"/>
<path d="M381.164 301.5C383.164 298 381.796 293.272 381.164 288C385.246 292.49 387.164 299 385.164 302.5C383.164 306 378.664 308 377.164 311C375.664 314 375.787 316.622 375.664 320C373.366 316.251 372.164 314.5 373.664 310C375.164 305.5 379.164 305 381.164 301.5Z" fill="#F4F4F4"/>
<path d="M23.5 244.5L154.5 259L167 344.5L39.5 324.5L23.5 244.5Z" fill="#8F8A86"/>
<path d="M24 247L152 261.5L164.5 344.5L39.5 324.5L24 247Z" fill="#D9D9D9"/>
<path d="M55.5 278L119 287.5L126.5 330L62.5 320L55.5 278Z" fill="#909195"/>
<path fill-rule="evenodd" clip-rule="evenodd" d="M56.0127 281.076L116.5 290L123.5 329.5L62.5001 320L56.0127 281.076Z" fill="#B2BABC"/>
<path d="M100 370L121.5 371.5L100 378.5V370Z" fill="#73727A"/>
<path d="M75.5 302L100 305V378.5L75.5 377V302Z" fill="#8D8C91"/>
<path fill-rule="evenodd" clip-rule="evenodd" d="M75.5 304V377L98 378.378V306.5L75.5 304Z" fill="#ADAEB0"/>
<path d="M145.221 383.831C145.221 383.831 145.221 385.83 168 385.83C190.78 385.83 190.78 383.831 190.78 383.831V377.322C190.78 377.322 190.78 375 168 375.32C145.221 375.64 145.221 377.322 145.221 377.322V383.831Z" fill="#AF8066"/>
<path d="M146.848 416.373C146.848 416.373 146.848 418.24 168 418.37C189.153 418.5 189.153 416.373 189.153 416.373V383.831C189.153 383.831 189.153 385.83 168 385.83C146.848 385.83 146.848 383.831 146.848 383.831V416.373Z" fill="#AF8066"/>
<path d="M175.381 344.192C176.331 350.137 176.657 356.602 176.305 362.809C179.441 357.508 183.077 353.04 186.829 349.42C188.435 340.489 190.009 332.198 194.34 326.627C189.827 326.627 181.6 333.123 175.381 344.192Z" fill="#5ABA63"/>
<path d="M161.159 344.132C154.948 333.107 146.767 326.628 142.273 326.628C146.595 332.188 148.171 340.476 149.774 349.412C153.547 353.052 157.205 357.551 160.352 362.893C159.95 356.615 160.236 350.094 161.159 344.132Z" fill="#5ABA63"/>
<path d="M155.353 380.322H163.759C161.875 375.328 160.757 369.23 160.35 362.868C149.388 344.28 132.164 335.991 126 338.017C137.753 345.928 141.889 367.661 155.353 380.322Z" fill="#91CF96"/>
<path d="M176.307 362.785C175.946 369.216 174.856 375.351 172.98 380.322H181.257C194.723 367.662 198.859 345.928 210.612 338.017C204.457 335.993 187.273 344.254 176.307 362.785Z" fill="#91CF96"/>
<path d="M172.984 380.322C179.105 364.09 176.842 335.402 168.306 325C159.718 334.802 157.487 363.69 163.755 380.322H172.984Z" fill="#91CF96"/>
<path d="M168.306 381.949C167.408 381.949 166.679 381.22 166.679 380.322V344.526C166.679 343.627 167.408 342.898 168.306 342.898C169.204 342.898 169.933 343.627 169.933 344.526V380.322C169.933 381.22 169.204 381.949 168.306 381.949Z" fill="#5ABA63"/>
<path d="M163.759 380.322C163.397 379.362 163.071 378.35 162.765 377.313C157.508 371.627 154.063 364.472 150.743 357.515C148.442 352.698 146.231 348.085 143.523 344.183C141.558 342.771 139.634 341.608 137.792 340.659C137.48 341.258 137.545 342.008 138.036 342.526C141.951 346.66 144.794 352.614 147.806 358.917C151.392 366.425 155.123 374.152 161.155 380.322H163.759Z" fill="#5ABA63"/>
<path d="M186.634 357.809C183.045 364.638 179.329 371.666 173.953 377.367C173.653 378.386 173.336 379.38 172.981 380.322H175.611C181.675 374.173 185.67 366.64 189.516 359.322C193.577 351.594 197.414 344.293 203.109 340.458C203.731 340.04 203.942 339.272 203.713 338.593C201.572 339.272 199.181 340.363 196.666 341.852C192.769 346.166 189.76 351.859 186.634 357.809Z" fill="#5ABA63"/>
<path d="M145.221 383.831C145.221 383.831 145.221 385.83 168 385.83C190.78 385.83 190.78 383.831 190.78 383.831V377.322C190.78 377.322 190.78 379 168 379.32C145.221 379.64 145.221 377.322 145.221 377.322V383.831Z" fill="#D9AA94"/>
</svg>