<svg width="100%" height="100%" viewBox="0 0 512 400" preserveAspectRatio="xMidYMid meet" fill="none" xmlns="http://www.w3.org/2000/svg">
    <path d="M312.5 38.58C317.26 47.9794 320.253 57.0053 320.253 62.1809C320.253 67.3564 315.842 74.75 315.107 80.6649C314.372 86.5798 315.107 89.5373 318.783 93.9734C322.458 98.4096 326.869 105.803 329.809 112.457C332.75 119.112 332.75 120.59 330.545 128.723C328.339 136.856 323.928 136.856 330.545 148.686C337.161 160.516 338.414 167.264 337.896 179H271L295.994 76.9681L312.5 38.58Z" fill="#A46B41"/>
<path d="M208.126 24L220.835 72.0501L247 188H175.565C170.524 185.02 170 180.579 170 170.19C170 159.801 172.99 155.348 179.718 149.412C186.447 143.475 184.951 141.249 182.709 134.57C180.466 127.891 178.223 111.566 187.194 98.9502C196.165 86.3348 195.107 89.6638 190.184 77.4299C185.262 65.1959 187.899 37.8443 208.126 24Z" fill="#805333"/>
<path d="M219.456 98H291.726C293.938 100.241 287.726 101.284 293.938 111.448C300.15 121.612 301.088 119.151 303.525 124.897C305.962 130.642 302.788 140.586 301.313 143.575C299.838 146.563 299.1 148.805 301.313 151.793C304.262 155.778 305 157.77 305 161.506L206.92 163C205.984 158.647 204.707 155.529 209.132 151.793C213.557 148.057 215.769 145.816 215.769 139.839C215.769 133.862 214.895 133.257 212.082 125.644C209.269 118.031 212.526 113.94 217.981 106.966C219.308 103.46 219.43 101.498 219.456 98Z" fill="#624027"/>
<path d="M238.487 127.757H273.253C276.833 145.015 280.036 151.114 288.787 152.907L256.24 183.235L222.953 155.865C232.812 146.653 236.912 140.823 238.487 127.757Z" fill="#F9AE8E"/>
<path fill-rule="evenodd" clip-rule="evenodd" d="M275.316 136.512C269.395 141.115 262.59 143.734 255.352 143.734C248.554 143.734 242.138 141.424 236.477 137.329C237.397 134.556 238.042 131.444 238.487 127.757H273.253C273.94 131.07 274.614 133.973 275.316 136.512Z" fill="#F29A69"/>
<path fill-rule="evenodd" clip-rule="evenodd" d="M202.711 162.463C197.865 163.965 193.8 165.226 191.146 166.221C185.228 168.44 180.79 172.139 177.831 178.057C177.412 178.894 176.594 180.479 175.476 182.646C168.696 195.788 150.86 230.356 143.804 249.808L157.119 308.985H361.278C371.55 299.404 375.583 293.094 378.291 279.396C376.164 247.763 364.55 223.884 338.347 178.057C335.268 172.869 333.169 169.92 327.991 166.961C325.147 165.336 318.143 163.014 309.912 160.286C303.156 158.047 295.574 155.533 288.787 152.907L256.24 183.235L222.953 155.865C215.805 158.402 208.668 160.615 202.711 162.463ZM344.265 272.739L339.087 264.602V277.177L344.265 272.739Z" fill="#2B7B7C"/>
<ellipse cx="214.085" cy="92.1025" rx="7.20465" ry="13.156" transform="rotate(-15 214.085 92.1025)" fill="#F29A69"/>
<ellipse cx="296.039" cy="91.2893" rx="7.20465" ry="13.156" transform="rotate(15 296.039 91.2893)" fill="#F29A69"/>
<ellipse cx="255.352" cy="76.421" rx="41.4235" ry="58.4368" fill="#F9AE8E"/>
<g opacity="0.5" filter="url(#filter0_f_34_274)">
<path d="M252.756 97.3749C252.616 100.408 252.541 101.127 250.322 102.607C248.103 104.086 248.103 106.305 248.843 107.785C249.582 109.264 251.914 109.556 255.715 109.21" stroke="#F29A69" stroke-width="0.5" stroke-linecap="round"/>
</g>
<path d="M271.478 112.963C268.014 118.217 265.116 121.099 259.199 122.579C253.281 124.058 247.747 120.93 242.185 114.442C253.702 118.419 260.126 118.202 271.478 112.963Z" fill="#F2F2F2"/>
<ellipse cx="237.509" cy="84.4138" rx="3.69853" ry="5.91765" transform="rotate(-5 237.509 84.4138)" fill="#624027"/>
<path d="M225.172 72.2786C232.559 66.973 236.6 67.0823 243.665 71.243C239.289 70.916 236.827 70.8313 232.378 71.243L225.172 72.2786Z" fill="#805333"/>
<ellipse cx="272.279" cy="84.4138" rx="3.69853" ry="5.91765" transform="rotate(5 272.279 84.4138)" fill="#624027"/>
<path d="M285.088 72.2787C285.088 72.2787 280.502 70.9472 277.247 70.5034C273.993 70.0596 271.388 70.0886 266.596 70.7993C269.401 67.9886 272.513 67.1007 276.951 67.8404C281.39 68.5801 282.907 69.7749 285.088 72.2787Z" fill="#805333"/>
<path fill-rule="evenodd" clip-rule="evenodd" d="M296.459 83.679C296.668 81.301 296.776 78.8787 296.776 76.421C296.776 50.9469 285.221 29.2798 269.102 21.2807L265.856 37.5125C265.924 37.655 265.991 37.7964 266.058 37.9367C269.76 45.7143 271.892 50.1924 278.431 56.0052C284.924 61.7769 292.768 71.0117 296.459 83.679Z" fill="#F29A69" fill-opacity="0.5"/>
<path fill-rule="evenodd" clip-rule="evenodd" d="M214.323 84.5135C214.063 81.8685 213.929 79.1669 213.929 76.421C213.929 44.1473 232.475 17.9843 255.352 17.9843C262.003 17.9843 268.287 20.1953 273.857 24.1247C273.739 25.2693 273.511 26.5087 273.253 27.8963C272.315 32.9467 266.596 41.211 263.637 44.1699C260.678 47.1287 258.459 49.3478 240.706 56.7448C223.397 63.9567 217.581 70.68 214.323 84.5135Z" fill="#F29A69" fill-opacity="0.5"/>
<path d="M269.672 13.0525C281.174 12.4732 293.156 18.9448 297.578 21.9724C302 25 311 34 313 39.8121C315 45.6242 296.653 79 296.653 79C293.113 65.7701 285.094 56.1653 278.484 50.2186C271.875 44.272 269.801 39.7155 266 31.6356L269.672 13.0525Z" fill="#A46B41"/>
<path d="M271.082 10.1574C274.793 13.8724 274.25 16.9726 273.308 22.0455C272.367 27.1184 266.629 35.4196 263.661 38.3917C260.692 41.3637 258.466 43.5927 240.654 51.0228C222.843 58.4528 217.161 65.3666 213.937 80L208.13 24C223.317 13.9973 237.686 9.41439 248.818 7.92839C259.95 6.44239 267.371 6.44237 271.082 10.1574Z" fill="#805333"/>
<rect x="4" y="309" width="503" height="83" rx="5" fill="#A6826A"/>
<rect x="170.656" y="189.67" width="168.579" height="119.315" rx="3" fill="#D6F3F5"/>
<circle cx="254.76" cy="249.068" r="9.61618" fill="#EBF9FA"/>
<path d="M426.064 258.685L421.378 308.985H394.822L390.126 258.685H426.064Z" fill="#FED049"/>
<path d="M425.632 271.26L424.153 290.492H391.606L390.126 271.26H425.632Z" fill="white"/>
<path d="M428.591 251.287L431.55 258.685H384.209L387.168 251.287H428.591Z" fill="#2B7B7C"/>
<path d="M423.413 246.849L425.632 251.287H390.126L392.346 246.849H423.413Z" fill="white"/>
<path d="M63.4723 289.013H152.607C158.122 289.013 162.593 293.483 162.593 298.999C162.593 304.514 158.122 308.985 152.607 308.985H63.4723V289.013Z" fill="#4F9796"/>
<path d="M63.4723 291.232H142.473C146.64 291.232 150.018 294.61 150.018 298.777C150.018 302.944 146.64 306.322 142.473 306.322H63.4723V291.232Z" fill="white"/>
<path fill-rule="evenodd" clip-rule="evenodd" d="M142.473 291.232H63.4723V295.67H149.351C148.166 293.053 145.532 291.232 142.473 291.232Z" fill="#F2F2F2"/>
<path d="M109.778 297.593L143.065 297.741L109.778 297.889L76.4912 297.741L109.778 297.593Z" fill="#D9D9D9"/>
<path d="M106.079 302.327L139.366 302.475L106.079 302.623L72.7926 302.475L106.079 302.327Z" fill="#D9D9D9"/>
<path d="M60.9574 275.366C60.9574 274.814 61.4051 274.366 61.9574 274.366H158.486C159.039 274.366 159.486 274.814 159.486 275.366V288.013C159.486 288.565 159.039 289.013 158.486 289.013H61.9574C61.4051 289.013 60.9574 288.565 60.9574 288.013V275.366Z" fill="#FED049"/>
<rect x="76.0474" y="274.366" width="10.3559" height="14.6462" fill="#D6F3F5"/>
<path d="M67.3188 248.329H151.823C154.585 248.329 156.823 250.567 156.823 253.329V269.366C156.823 272.128 154.585 274.366 151.823 274.366H67.3188V248.329Z" fill="#E46E88"/>
<path d="M67.3188 251.731H150.421C152.077 251.731 153.421 253.074 153.421 254.731V268.26C153.421 269.916 152.077 271.26 150.421 271.26H67.3188V251.731Z" fill="white"/>
<path d="M106.819 260.164L140.106 260.46L106.819 260.756L73.5323 260.46L106.819 260.164Z" fill="#D9D9D9"/>
<path d="M112.737 264.158L146.023 264.454L112.737 264.75L79.45 264.454L112.737 264.158Z" fill="#D9D9D9"/>
<path fill-rule="evenodd" clip-rule="evenodd" d="M150.421 251.731H67.3188V271.26L67.3189 271.26V257.205H153.421L153.421 254.731C153.421 253.074 152.077 251.731 150.421 251.731Z" fill="#F2F2F2"/>
<path d="M229.559 73.3143L234.241 73.4291L224.493 100.21L219.772 97.0949L229.559 73.3143Z" fill="white" fill-opacity="0.1"/>
<path d="M235.533 73.6102C239.848 73.825 242.041 74.8717 245.657 77.9005L235.411 101.571C230.961 101.57 228.714 101.344 225.287 100.426L235.533 73.6102Z" fill="white" fill-opacity="0.1"/>
<path d="M276.847 72.7225L281.528 72.8005L271.481 100.404L266.8 98.1684L276.847 72.7225Z" fill="white" fill-opacity="0.1"/>
<path d="M283.134 72.5745C288.222 72.5096 290.359 73.2049 293.258 75.3854L282.442 100.683C278.384 100.96 276.149 100.905 272.319 100.5L283.134 72.5745Z" fill="white" fill-opacity="0.1"/>
<path d="M214.682 90.0597L215.208 79.8059C215.402 76.0253 218.566 73.0838 222.351 73.1661L239.8 73.5454C245.237 73.6636 249.582 78.1049 249.582 83.5431L249.582 92.3128C249.582 97.2103 245.666 101.209 240.77 101.311L225.897 101.621C219.511 101.754 214.355 96.4384 214.682 90.0597Z" stroke="black" stroke-width="0.3"/>
<path d="M296.661 89.4646L296.135 79.2109C295.941 75.4303 292.777 72.4888 288.992 72.5711L271.543 72.9504C266.106 73.0685 261.76 77.5099 261.76 82.9481L261.76 91.7177C261.76 96.6152 265.676 100.614 270.573 100.716L285.446 101.026C291.832 101.159 296.988 95.8433 296.661 89.4646Z" stroke="black" stroke-width="0.3"/>
<path d="M249.582 86.407L261.935 86.3331" stroke="black" stroke-width="0.3"/>
<defs>
<filter id="filter0_f_34_274" x="247.65" y="96.6249" width="8.81506" height="13.4664" filterUnits="userSpaceOnUse" color-interpolation-filters="sRGB">
<feFlood flood-opacity="0" result="BackgroundImageFix"/>
<feBlend mode="normal" in="SourceGraphic" in2="BackgroundImageFix" result="shape"/>
<feGaussianBlur stdDeviation="0.25" result="effect1_foregroundBlur_34_274"/>
</filter>
</defs>
</svg>